<?xml version="1.0" encoding="utf-8"?>
<!-- Generator: Adobe Illustrator 21.1.0, SVG Export Plug-In . SVG Version: 6.00 Build 0)  -->
<svg version="1.1" id="Calque_1" xmlns="http://www.w3.org/2000/svg" xmlns:xlink="http://www.w3.org/1999/xlink" x="0px" y="0px"
	 viewBox="0 0 31.5 41.9" style="enable-background:new 0 0 31.5 41.9;" xml:space="preserve">
<style type="text/css">
	.st0{fill:#333333;}
	.st1{fill:none;}
	.st2{fill:url(#SVGID_1_);}
	.st3{fill:url(#SVGID_2_);}
	.st4{fill:url(#SVGID_3_);}
	.st5{fill:url(#SVGID_4_);}
	.st6{fill:url(#SVGID_5_);}
	.st7{fill:url(#SVGID_6_);}
	.st8{fill:url(#SVGID_7_);}
	.st9{fill:url(#SVGID_8_);}
	.st10{fill:url(#SVGID_9_);}
	.st11{fill:url(#SVGID_10_);}
	.st12{fill:url(#SVGID_11_);}
	.st13{fill:#FFFFFF;}
	.st14{fill:url(#SVGID_12_);}
	.st15{fill:url(#SVGID_13_);}
	.st16{fill:url(#SVGID_14_);}
	.st17{fill:url(#SVGID_15_);}
	.st18{fill:url(#SVGID_16_);}
	.st19{fill:url(#SVGID_17_);}
	.st20{fill:url(#SVGID_18_);}
	.st21{fill:url(#SVGID_19_);}
	.st22{fill:url(#SVGID_20_);}
	.st23{fill:url(#SVGID_21_);}
	.st24{fill:url(#SVGID_22_);}
	.st25{fill:url(#SVGID_23_);}
	.st26{fill:url(#SVGID_24_);}
	.st27{fill:url(#SVGID_25_);}
	.st28{fill:url(#SVGID_26_);}
	.st29{fill:url(#SVGID_27_);}
	.st30{fill:url(#SVGID_28_);}
	.st31{fill:url(#SVGID_29_);}
	.st32{fill:url(#SVGID_30_);}
	.st33{fill:url(#SVGID_31_);}
	.st34{fill:url(#SVGID_32_);}
	.st35{fill:url(#SVGID_33_);}
	.st36{fill:url(#SVGID_34_);}
	.st37{fill:url(#SVGID_35_);}
	.st38{fill:url(#SVGID_36_);}
	.st39{fill:url(#SVGID_37_);}
	.st40{fill:url(#SVGID_38_);}
	.st41{fill:url(#SVGID_39_);}
	.st42{fill:url(#SVGID_40_);}
	.st43{fill:url(#SVGID_41_);}
	.st44{fill:url(#SVGID_42_);}
	.st45{fill:url(#SVGID_43_);}
	.st46{fill:url(#SVGID_44_);}
	.st47{fill:url(#SVGID_45_);}
	.st48{fill:url(#SVGID_46_);}
	.st49{fill:url(#SVGID_47_);}
	.st50{fill:url(#SVGID_48_);}
	.st51{fill:url(#SVGID_49_);}
	.st52{fill:url(#SVGID_50_);}
	.st53{fill:url(#SVGID_51_);}
	.st54{fill:url(#SVGID_52_);}
	.st55{fill:url(#SVGID_53_);}
	.st56{fill:url(#SVGID_54_);}
	.st57{fill:#43E97B;}
	.st58{fill:url(#SVGID_55_);}
</style>
<g>
	<path class="st1" d="M14.1,26c0-0.4,0-1.1-0.8-1.5c-1.9-1-2.8-2.6-2.8-4.9c0-2.1,0-4.3,0.1-6.4c0-1.3,0-2.6,0-3.9
		c0-0.6,0.1-1,0.3-1.2c0.2-0.1,0.5-0.2,1-0.2c0,0,0.1,0,0.1,0c0.8,0,1.1,0.2,1.1,1.4c0,0.9,0,1.9,0,2.8c0,1.3,0,2.7,0,4
		c0,0.1,0,0.1,0,0.2c0,0.2,0,0.5,0.2,0.7c0.1,0.1,0.3,0.2,0.5,0.2c0,0,0,0,0,0c0.2,0,0.4,0,0.5-0.2c0.2-0.2,0.2-0.5,0.2-0.7
		c0-0.1,0-0.1,0-0.2c0-1.3,0-2.7,0-4.1c0-1,0-1.9,0-2.8c0-1.2,0.3-1.3,1.1-1.4l0,0l0,0c0.9,0,1.1,0.2,1.1,1.4c0,0.9,0,1.9,0,2.8
		c0,1.4,0,2.8,0,4.1c0,0.1,0,0.1,0,0.2c0,0.2,0,0.5,0.2,0.7c0.1,0.1,0.3,0.2,0.5,0.2c0.2,0,0.4-0.1,0.6-0.2c0.2-0.2,0.2-0.5,0.2-0.7
		c0-0.1,0-0.1,0-0.2c0-1.3,0-2.7,0-4c0-1,0-1.9,0-2.8c0-1.2,0.3-1.4,1.1-1.4c0.5,0,0.9,0.1,1.1,0.2c0.2,0.2,0.3,0.5,0.3,1.2
		c0,1.3,0,2.6,0,3.9c0,2.1,0,4.3,0.1,6.4c0,2.3-0.9,3.9-2.8,4.9c-0.8,0.4-0.8,1.1-0.8,1.5c0,0.1,0,0.1,0,0.2c0,0.4,0,0.8,0,1.2
		c5.6-0.8,9.9-5.6,9.9-11.5c0-6.4-5.2-11.6-11.6-11.6C9.4,4.4,4.2,9.5,4.2,15.9c0,5.8,4.3,10.7,9.9,11.5c0-0.4,0-0.8,0-1.2
		C14.1,26.1,14.1,26,14.1,26z"/>
	<path class="st13" d="M15.8,0.9c-8.3,0-15,6.7-15,15c0,6.5,9.4,18.3,13.3,23c1,1.2,1.7,2,1.7,2s0.7-0.7,1.7-2
		c3.9-4.7,13.3-16.5,13.3-23C30.8,7.7,24.1,0.9,15.8,0.9z M17.4,27.4c0-0.4,0-0.8,0-1.2c0-0.1,0-0.1,0-0.2c0-0.4,0-1.1,0.8-1.5
		c1.9-1,2.8-2.6,2.8-4.9c0-2.1,0-4.3-0.1-6.4c0-1.3,0-2.6,0-3.9c0-0.6-0.1-1-0.3-1.2c-0.2-0.2-0.5-0.2-1.1-0.2
		c-0.8,0-1.1,0.2-1.1,1.4c0,0.9,0,1.9,0,2.8c0,1.3,0,2.7,0,4c0,0.1,0,0.1,0,0.2c0,0.2,0,0.5-0.2,0.7c-0.1,0.1-0.3,0.2-0.6,0.2
		c-0.2,0-0.4,0-0.5-0.2C17,16.8,17,16.5,17,16.3c0-0.1,0-0.1,0-0.2c0-1.3,0-2.7,0-4.1c0-1,0-1.9,0-2.8c0-1.2-0.3-1.3-1.1-1.4l0,0
		l0,0c-0.9,0-1.1,0.2-1.1,1.4c0,0.9,0,1.9,0,2.8c0,1.4,0,2.8,0,4.1c0,0.1,0,0.1,0,0.2c0,0.2,0,0.5-0.2,0.7c-0.1,0.1-0.3,0.2-0.5,0.2
		c0,0,0,0,0,0c-0.2,0-0.4-0.1-0.5-0.2c-0.2-0.2-0.2-0.5-0.2-0.7c0-0.1,0-0.1,0-0.2c0-1.3,0-2.7,0-4c0-1,0-1.9,0-2.8
		c0-1.2-0.3-1.4-1.1-1.4c0,0-0.1,0-0.1,0c-0.5,0-0.8,0.1-1,0.2c-0.2,0.2-0.3,0.5-0.3,1.2c0,1.3,0,2.6,0,3.9c0,2.1,0,4.3-0.1,6.4
		c0,2.3,0.9,3.9,2.8,4.9c0.8,0.4,0.8,1.1,0.8,1.5c0,0.1,0,0.1,0,0.2c0,0.4,0,0.8,0,1.2c-5.6-0.8-9.9-5.6-9.9-11.5
		c0-6.4,5.2-11.6,11.6-11.6s11.6,5.2,11.6,11.6C27.4,21.8,23,26.6,17.4,27.4z"/>
</g>
</svg>
