<?xml version="1.0" encoding="utf-8"?>
<!-- Generator: Adobe Illustrator 21.1.0, SVG Export Plug-In . SVG Version: 6.00 Build 0)  -->
<svg version="1.1" id="Calque_1" xmlns="http://www.w3.org/2000/svg" xmlns:xlink="http://www.w3.org/1999/xlink" x="0px" y="0px"
	 viewBox="0 0 149.3 41.9" style="enable-background:new 0 0 149.3 41.9;" xml:space="preserve">
<style type="text/css">
	.st0{fill:#333333;}
	.st1{fill:none;}
	.st2{fill:url(#SVGID_1_);}
	.st3{fill:url(#SVGID_2_);}
	.st4{fill:url(#SVGID_3_);}
	.st5{fill:url(#SVGID_4_);}
	.st6{fill:url(#SVGID_5_);}
	.st7{fill:url(#SVGID_6_);}
	.st8{fill:url(#SVGID_7_);}
	.st9{fill:url(#SVGID_8_);}
	.st10{fill:url(#SVGID_9_);}
	.st11{fill:url(#SVGID_10_);}
	.st12{fill:url(#SVGID_11_);}
	.st13{fill:#FFFFFF;}
	.st14{fill:url(#SVGID_12_);}
	.st15{fill:url(#SVGID_13_);}
	.st16{fill:url(#SVGID_14_);}
	.st17{fill:url(#SVGID_15_);}
	.st18{fill:url(#SVGID_16_);}
	.st19{fill:url(#SVGID_17_);}
	.st20{fill:url(#SVGID_18_);}
	.st21{fill:url(#SVGID_19_);}
	.st22{fill:url(#SVGID_20_);}
	.st23{fill:url(#SVGID_21_);}
	.st24{fill:url(#SVGID_22_);}
	.st25{fill:url(#SVGID_23_);}
	.st26{fill:url(#SVGID_24_);}
	.st27{fill:url(#SVGID_25_);}
	.st28{fill:url(#SVGID_26_);}
	.st29{fill:url(#SVGID_27_);}
	.st30{fill:url(#SVGID_28_);}
	.st31{fill:url(#SVGID_29_);}
	.st32{fill:url(#SVGID_30_);}
	.st33{fill:url(#SVGID_31_);}
	.st34{fill:url(#SVGID_32_);}
	.st35{fill:url(#SVGID_33_);}
	.st36{fill:url(#SVGID_34_);}
	.st37{fill:url(#SVGID_35_);}
	.st38{fill:url(#SVGID_36_);}
	.st39{fill:url(#SVGID_37_);}
	.st40{fill:url(#SVGID_38_);}
	.st41{fill:url(#SVGID_39_);}
	.st42{fill:url(#SVGID_40_);}
	.st43{fill:url(#SVGID_41_);}
	.st44{fill:url(#SVGID_42_);}
	.st45{fill:url(#SVGID_43_);}
	.st46{fill:url(#SVGID_44_);}
	.st47{fill:url(#SVGID_45_);}
	.st48{fill:url(#SVGID_46_);}
	.st49{fill:url(#SVGID_47_);}
	.st50{fill:url(#SVGID_48_);}
	.st51{fill:url(#SVGID_49_);}
	.st52{fill:url(#SVGID_50_);}
	.st53{fill:url(#SVGID_51_);}
	.st54{fill:url(#SVGID_52_);}
	.st55{fill:url(#SVGID_53_);}
	.st56{fill:url(#SVGID_54_);}
	.st57{fill:#43E97B;}
	.st58{fill:url(#SVGID_55_);}
</style>
<g>
	<g>
		<path class="st0" d="M3.1,21.3c0,0.8,0.2,1.6,0.4,2.4s0.5,1.3,0.9,1.8C5.2,26.5,6.4,27,7.9,27c1.5,0,3-0.6,4.4-1.7l0.9,1.5
			c-1.8,1.3-3.7,1.9-5.6,1.9c-2,0-3.5-0.7-4.7-2.1c-0.6-0.7-1-1.5-1.3-2.5s-0.4-2.1-0.4-3.3c0-1.1,0.2-2.1,0.5-3s0.8-1.8,1.4-2.5
			c0.6-0.7,1.4-1.3,2.2-1.7s1.7-0.6,2.7-0.6c1.9,0,3.3,0.7,4.4,2c1,1.3,1.5,3.1,1.5,5.3v0.9H3.1z M11.8,19.5
			c-0.1-1.5-0.5-2.7-1.2-3.5S9,14.8,7.8,14.8c-0.6,0-1.2,0.1-1.8,0.3s-1,0.5-1.4,1C4.3,16.5,4,17,3.7,17.6s-0.4,1.2-0.6,1.9H11.8z"
			/>
		<path class="st0" d="M21.4,13.1c1.6,0,2.8,0.5,3.7,1.4s1.3,2.4,1.3,4.2v9.7h-1.9v-1.6c-0.2,0.2-0.4,0.4-0.7,0.6S23.3,27.8,23,28
			c-1,0.6-2.1,0.8-3.2,0.8c-1.5,0-2.6-0.4-3.4-1.2c-0.9-0.8-1.3-1.9-1.3-3.1c0.1-0.8,0.3-1.5,0.6-2.1s0.8-1.1,1.3-1.5
			s1.1-0.7,1.8-0.9s1.3-0.3,2.1-0.3c0.6,0,1.2,0.1,1.9,0.2s1.2,0.4,1.8,0.7c0-0.3,0-0.6,0-0.9s0-0.6,0-0.9c-0.1-1.3-0.4-2.2-0.9-2.9
			s-1.3-1-2.3-1c-1.7,0-3.2,0.6-4.5,1.8l-1.2-1.2C17.1,13.9,19,13.1,21.4,13.1z M17,24.4c0,0.8,0.3,1.4,0.8,1.9
			c0.5,0.5,1.3,0.7,2.2,0.7c1.3,0,2.4-0.3,3.2-1v0c0.4-0.3,0.7-0.6,0.9-0.9s0.4-0.5,0.4-0.7v-2.2c-0.6-0.4-1.2-0.7-1.8-0.8
			s-1.2-0.3-1.7-0.3c-0.5,0-1.1,0.1-1.5,0.2s-0.9,0.4-1.3,0.7s-0.6,0.6-0.8,1S17,23.9,17,24.4z"/>
		<path class="st0" d="M28.6,25.5c0.3,0.3,0.6,0.5,1,0.7s0.7,0.4,1,0.5c0.3,0.1,0.6,0.2,0.9,0.3S32,27,32.3,27
			c2.1,0,3.1-0.8,3.1-2.5c0-0.3-0.1-0.5-0.2-0.8s-0.3-0.5-0.5-0.7s-0.6-0.4-0.9-0.6s-0.8-0.4-1.4-0.7c-1.4-0.6-2.4-1.3-3-1.9
			c-0.6-0.7-0.9-1.5-0.9-2.5c0-1.3,0.5-2.3,1.4-3.1c0.9-0.8,2.1-1.1,3.5-1.1c1.3,0,2.6,0.4,4,1.3L36.7,16c-1.2-0.8-2.4-1.2-3.5-1.2
			c-0.9,0-1.6,0.2-2.1,0.7c-0.5,0.4-0.8,1-0.8,1.7c0,0.6,0.2,1.1,0.5,1.5c0.2,0.2,0.5,0.4,0.9,0.7s0.9,0.5,1.5,0.7
			c0.8,0.3,1.4,0.7,1.9,1s0.9,0.6,1.2,0.9c0.6,0.6,0.9,1.5,0.9,2.5c0,1.2-0.5,2.3-1.4,3.1c-0.9,0.8-2.2,1.2-3.7,1.2
			c-0.7,0-1.5-0.1-2.2-0.4s-1.5-0.7-2.2-1.2L28.6,25.5z"/>
		<path class="st0" d="M44.8,31.2c-0.3,0.7-0.6,1.3-0.9,1.8s-0.6,0.9-1,1.2s-0.8,0.6-1.2,0.7s-0.9,0.2-1.5,0.2c-0.2,0-0.5,0-0.7-0.1
			s-0.5-0.1-0.8-0.2l0.6-1.8c0.2,0.2,0.6,0.3,0.9,0.3c1,0,1.9-0.7,2.5-2.2l1.3-3.1c-0.9-2.4-1.8-4.8-2.8-7.3s-1.9-4.9-2.8-7.3h2.1
			L45,25.3l0.1,0.4c0,0,0-0.1,0-0.1s0-0.1,0-0.1l4.7-12h2L44.8,31.2z"/>
	</g>
	<g>
		<path class="st0" d="M91.9,24.4c0,0.9,0.1,1.5,0.4,1.9s0.7,0.6,1.4,0.6c0.5,0,1.2-0.2,2-0.7v1.9c-0.4,0.2-0.8,0.3-1.2,0.4
			s-0.7,0.1-1,0.1c-2.3,0-3.5-1.4-3.5-4.1V6.5h1.9V24.4z"/>
		<path class="st0" d="M106.2,28.4v-2c-1.3,1.7-2.8,2.5-4.4,2.4h0c-3.6,0-5.4-2.2-5.4-6.7v-8.6h1.9v8.3c0,1.9,0.3,3.2,0.9,4
			s1.5,1.3,2.8,1.3c0.9,0,1.6-0.2,2.3-0.7s1.3-1.2,1.9-2.2V13.4h1.9v15H106.2z"/>
		<path class="st0" d="M111.8,28.4H110v-15h1.9v1.8c1.2-1.5,2.8-2.2,4.7-2.2c1.7,0,2.9,0.5,3.8,1.6s1.3,2.6,1.3,4.7v9.1h-1.9v-8.7
			c0-1.6-0.3-2.9-0.9-3.7s-1.4-1.2-2.6-1.3c-1,0.1-1.9,0.4-2.7,0.8s-1.4,1.1-1.8,1.9V28.4z"/>
		<path class="st0" d="M134.9,27.3c-0.9,0.5-1.7,0.9-2.6,1.2s-1.6,0.4-2.4,0.4c-2.1,0-3.7-0.7-5-2.1c-1.3-1.4-1.9-3.3-1.9-5.5
			c0-1.2,0.2-2.2,0.6-3.2s0.9-1.9,1.5-2.6c0.7-0.7,1.5-1.3,2.4-1.7s1.9-0.6,3-0.6c1.5,0,2.9,0.4,4.3,1.3l-1.1,1.4
			c-1.1-0.7-2.3-1-3.5-1c-1.6,0-2.9,0.6-3.9,1.7c-1,1.2-1.5,2.7-1.5,4.5c0,1.8,0.5,3.2,1.4,4.3c0.9,1.1,2.1,1.6,3.6,1.6
			c1.4,0,2.7-0.4,3.8-1.3L134.9,27.3z"/>
		<path class="st0" d="M146.2,28.4v-8.9c0-1.6-0.3-2.8-0.9-3.6s-1.5-1.1-2.7-1.1c-1.7,0-3.1,1.1-4.4,3.3v10.4h-1.9V6.5h1.9v8.9
			c1.2-1.5,2.8-2.3,4.7-2.3c1.7,0,2.9,0.5,3.8,1.6s1.3,2.6,1.3,4.6v9.2H146.2z"/>
	</g>
	<g>
		<path class="st1" d="M69.4,26c0-0.4,0-1.1-0.8-1.5c-1.9-1-2.8-2.6-2.8-4.9c0-2.1,0-4.3,0.1-6.4c0-1.3,0-2.6,0-3.9
			c0-0.6,0.1-1,0.3-1.2c0.2-0.1,0.5-0.2,1-0.2c0,0,0.1,0,0.1,0c0.8,0,1.1,0.2,1.1,1.4c0,0.9,0,1.9,0,2.8c0,1.3,0,2.7,0,4
			c0,0.1,0,0.1,0,0.2c0,0.2,0,0.5,0.2,0.7c0.1,0.1,0.3,0.2,0.5,0.2c0,0,0,0,0,0c0.2,0,0.4,0,0.5-0.2c0.2-0.2,0.2-0.5,0.2-0.7
			c0-0.1,0-0.1,0-0.2c0-1.3,0-2.7,0-4.1c0-1,0-1.9,0-2.8c0-1.2,0.3-1.3,1.1-1.4l0,0l0,0c0.9,0,1.1,0.2,1.1,1.4c0,0.9,0,1.9,0,2.8
			c0,1.4,0,2.8,0,4.1c0,0.1,0,0.1,0,0.2c0,0.2,0,0.5,0.2,0.7c0.1,0.1,0.3,0.2,0.5,0.2c0.2,0,0.4-0.1,0.6-0.2
			c0.2-0.2,0.2-0.5,0.2-0.7c0-0.1,0-0.1,0-0.2c0-1.3,0-2.7,0-4c0-1,0-1.9,0-2.8c0-1.2,0.3-1.4,1.1-1.4c0.5,0,0.9,0.1,1.1,0.2
			c0.2,0.2,0.3,0.5,0.3,1.2c0,1.3,0,2.6,0,3.9c0,2.1,0,4.3,0.1,6.4c0,2.3-0.9,3.9-2.8,4.9c-0.8,0.4-0.8,1.1-0.8,1.5
			c0,0.1,0,0.1,0,0.2c0,0.4,0,0.8,0,1.2c5.6-0.8,9.9-5.6,9.9-11.5c0-6.4-5.2-11.6-11.6-11.6c-6.4,0-11.6,5.2-11.6,11.6
			c0,5.8,4.3,10.7,9.9,11.5c0-0.4,0-0.8,0-1.2C69.4,26.1,69.4,26,69.4,26z"/>
		<linearGradient id="SVGID_1_" gradientUnits="userSpaceOnUse" x1="71.0058" y1="0.5547" x2="71.0058" y2="40.8936">
			<stop  offset="0" style="stop-color:#F1C40F"/>
			<stop  offset="1" style="stop-color:#FFA300"/>
		</linearGradient>
		<path class="st2" d="M71,0.9c-8.3,0-15,6.7-15,15c0,6.5,9.4,18.3,13.3,23c1,1.2,1.7,2,1.7,2s0.7-0.7,1.7-2
			c3.9-4.7,13.3-16.5,13.3-23C86,7.7,79.3,0.9,71,0.9z M72.6,27.4c0-0.4,0-0.8,0-1.2c0-0.1,0-0.1,0-0.2c0-0.4,0-1.1,0.8-1.5
			c1.9-1,2.8-2.6,2.8-4.9c0-2.1,0-4.3-0.1-6.4c0-1.3,0-2.6,0-3.9c0-0.6-0.1-1-0.3-1.2c-0.2-0.2-0.5-0.2-1.1-0.2
			c-0.8,0-1.1,0.2-1.1,1.4c0,0.9,0,1.9,0,2.8c0,1.3,0,2.7,0,4c0,0.1,0,0.1,0,0.2c0,0.2,0,0.5-0.2,0.7c-0.1,0.1-0.3,0.2-0.6,0.2
			c-0.2,0-0.4,0-0.5-0.2c-0.2-0.2-0.2-0.5-0.2-0.7c0-0.1,0-0.1,0-0.2c0-1.3,0-2.7,0-4.1c0-1,0-1.9,0-2.8c0-1.2-0.3-1.3-1.1-1.4l0,0
			l0,0c-0.9,0-1.1,0.2-1.1,1.4c0,0.9,0,1.9,0,2.8c0,1.4,0,2.8,0,4.1c0,0.1,0,0.1,0,0.2c0,0.2,0,0.5-0.2,0.7
			c-0.1,0.1-0.3,0.2-0.5,0.2c0,0,0,0,0,0c-0.2,0-0.4-0.1-0.5-0.2c-0.2-0.2-0.2-0.5-0.2-0.7c0-0.1,0-0.1,0-0.2c0-1.3,0-2.7,0-4
			c0-1,0-1.9,0-2.8c0-1.2-0.3-1.4-1.1-1.4c0,0-0.1,0-0.1,0c-0.5,0-0.8,0.1-1,0.2c-0.2,0.2-0.3,0.5-0.3,1.2c0,1.3,0,2.6,0,3.9
			c0,2.1,0,4.3-0.1,6.4c0,2.3,0.9,3.9,2.8,4.9c0.8,0.4,0.8,1.1,0.8,1.5c0,0.1,0,0.1,0,0.2c0,0.4,0,0.8,0,1.2
			c-5.6-0.8-9.9-5.6-9.9-11.5c0-6.4,5.2-11.6,11.6-11.6c6.4,0,11.6,5.2,11.6,11.6C82.6,21.8,78.3,26.6,72.6,27.4z"/>
	</g>
</g>
</svg>
